<?xml version="1.0" standalone="no"?>
<!DOCTYPE svg PUBLIC "-//W3C//DTD SVG 20010904//EN"
 "http://www.w3.org/TR/2001/REC-SVG-20010904/DTD/svg10.dtd">
<svg version="1.0" xmlns="http://www.w3.org/2000/svg"
 width="48.000000pt" height="48.000000pt" viewBox="0 0 48.000000 48.000000"
 preserveAspectRatio="xMidYMid meet">

<g transform="translate(0.000000,48.000000) scale(0.100000,-0.100000)"
fill="#000000" stroke="none">
<path d="M170 386 c-148 -12 -139 -7 -125 -73 5 -22 10 -23 113 -23 l107 -1
-83 -77 c-75 -70 -83 -80 -82 -114 l0 -38 175 0 c190 0 181 -3 169 58 l-6 30
-87 -5 -86 -6 81 84 80 84 -4 48 -4 47 -57 -2 c-31 0 -117 -6 -191 -12z m240
-40 c0 -43 -3 -47 -85 -123 -47 -43 -85 -84 -85 -91 0 -10 21 -13 95 -10 l95
3 0 -27 0 -28 -160 0 -160 0 0 33 c0 28 12 42 90 111 50 44 89 84 87 90 -3 7
-46 11 -118 11 l-114 0 -3 26 -3 26 128 10 c70 5 152 11 181 11 l52 2 0 -44z"/>
</g>
</svg>
