<?xml version="1.0" standalone="no"?>
<!DOCTYPE svg PUBLIC "-//W3C//DTD SVG 20010904//EN"
 "http://www.w3.org/TR/2001/REC-SVG-20010904/DTD/svg10.dtd">
<svg version="1.0" xmlns="http://www.w3.org/2000/svg"
 width="438.000000pt" height="438.000000pt" viewBox="0 0 438.000000 438.000000"
 preserveAspectRatio="xMidYMid meet">
<metadata>
Created by potrace 1.14, written by Peter Selinger 2001-2017
</metadata>
<g transform="translate(0.000000,438.000000) scale(0.100000,-0.100000)"
fill="#000000" stroke="none">
<path d="M3818 3694 c-2 -1 -46 -5 -98 -9 -52 -3 -113 -8 -135 -10 -22 -2 -78
-6 -125 -10 -47 -3 -107 -8 -135 -10 -54 -5 -160 -13 -265 -20 -36 -3 -87 -7
-115 -10 -27 -3 -90 -7 -140 -10 -49 -3 -106 -8 -125 -10 -19 -2 -75 -7 -125
-10 -49 -3 -110 -8 -135 -10 -25 -2 -79 -7 -120 -10 -41 -3 -106 -8 -145 -10
-38 -3 -95 -7 -125 -10 -30 -3 -86 -7 -125 -10 -144 -11 -282 -21 -385 -30
-25 -2 -85 -7 -135 -10 -49 -4 -108 -8 -130 -10 -22 -2 -74 -7 -115 -10 -41
-3 -106 -7 -145 -10 -38 -3 -97 -7 -130 -10 -33 -2 -98 -7 -145 -10 -47 -4
-98 -8 -115 -10 -16 -2 -75 -7 -130 -11 -55 -4 -111 -8 -125 -9 -14 -2 -36 -3
-49 -4 -18 -1 -22 -5 -16 -18 7 -18 53 -235 60 -283 2 -14 15 -81 29 -150 14
-69 28 -140 31 -158 8 -50 35 -175 41 -194 4 -13 13 -17 37 -13 18 2 109 7
202 10 310 11 379 14 485 19 58 3 170 8 250 11 80 3 190 8 245 10 98 4 212 9
465 20 69 3 181 8 249 11 102 4 121 3 110 -8 -30 -28 -117 -106 -188 -168 -41
-36 -86 -76 -101 -90 -15 -14 -58 -52 -95 -85 -38 -33 -73 -64 -79 -70 -6 -5
-34 -30 -61 -54 -28 -24 -72 -65 -100 -90 -27 -26 -149 -135 -271 -243 -121
-108 -227 -202 -235 -210 -8 -7 -79 -71 -159 -142 -80 -71 -181 -161 -224
-200 -44 -39 -86 -76 -94 -82 -17 -13 -17 -50 2 -354 3 -52 8 -147 11 -210 3
-63 8 -116 10 -118 4 -5 514 -8 2190 -16 523 -3 958 -8 968 -11 15 -6 17 0 17
46 0 95 -21 703 -26 727 -4 22 -7 22 -142 22 -120 0 -389 -10 -677 -25 -93 -4
-236 -10 -550 -21 -99 -3 -199 -7 -222 -8 -24 -1 -43 -1 -43 1 0 1 52 53 116
115 64 62 393 387 730 722 l614 608 0 67 c0 79 -19 665 -26 807 -4 78 -9 101
-20 101 -8 0 -15 -1 -16 -3z"/>
</g>
</svg>
